#N canvas 543 172 766 564 10;
#X obj 102 493 noteout 1;
#X obj 96 463 makenote 80 500;
#X obj 125 253 route 0 1 2 3;
#X obj 125 87 counter;
#X obj 125 116 % 4;
#X floatatom 125 231 5 0 0 0 - - -;
#X obj 18 139 bng 15 250 50 0 empty empty empty 17 7 0 10 -262144 -1
-1;
#X obj 125 24 bng 15 250 50 0 empty empty empty 17 7 0 10 -262144 -1
-1;
#X obj 125 59 metro 500;
#X obj 208 17 random 3;
#X obj 245 65 route 0 1 2;
#X obj 353 13 counter;
#X floatatom 354 59 5 0 0 0 - - -;
#X obj 353 38 % 2;
#X obj 354 78 route 1;
#X obj 353 105 random 5;
#X obj 352 128 route 0 1 2 3 4;
#X floatatom 260 45 5 0 0 0 - - -;
#X floatatom 415 105 5 0 0 0 - - -;
#X obj 311 21 t b b;
#X obj 293 158 bng 15 250 50 0 empty empty empty 17 7 0 10 -262144
-1 -1;
#X obj 369 159 bng 15 250 50 0 empty empty empty 17 7 0 10 -262144
-1 -1;
#X obj 532 196 bng 15 250 50 0 empty empty empty 17 7 0 10 -262144
-1 -1;
#X obj 519 163 bng 15 250 50 0 empty empty empty 17 7 0 10 -262144
-1 -1;
#X obj 522 145 bng 15 250 50 0 empty empty empty 17 7 0 10 -262144
-1 -1;
#X obj 240 290 counter;
#X msg 332 156 inc;
#X msg 398 156 dec;
#X msg 432 159 dec;
#X msg 464 159 inc;
#X msg 436 185 dec;
#X msg 466 184 inc;
#X obj 240 268 spigot;
#X obj 300 290 counter;
#X obj 300 268 spigot;
#X obj 363 290 counter;
#X obj 363 268 spigot;
#N canvas 0 22 450 300 combo 0;
#X obj 83 57 inlet;
#X obj 136 59 inlet;
#X obj 189 61 inlet;
#X obj 242 63 inlet;
#X obj 160 220 outlet;
#X connect 0 0 4 0;
#X connect 1 0 4 0;
#X connect 2 0 4 0;
#X connect 3 0 4 0;
#X restore 359 230 pd combo;
#N canvas 0 22 450 300 combine 0;
#X obj 50 49 inlet;
#X obj 122 50 inlet;
#X obj 190 52 inlet;
#X obj 114 236 outlet;
#X obj 50 241 outlet;
#X obj 192 241 outlet;
#X msg 46 119 1;
#X msg 79 120 0;
#X msg 121 121 1;
#X msg 154 124 0;
#X msg 193 124 1;
#X msg 227 124 0;
#X connect 0 0 6 0;
#X connect 0 0 7 0;
#X connect 1 0 8 0;
#X connect 1 0 9 0;
#X connect 2 0 10 0;
#X connect 2 0 11 0;
#X connect 6 0 4 0;
#X connect 7 0 3 0;
#X connect 7 0 5 0;
#X connect 8 0 3 0;
#X connect 9 0 4 0;
#X connect 9 0 5 0;
#X connect 10 0 5 0;
#X connect 11 0 4 0;
#X connect 11 0 3 0;
#X restore 227 194 pd combine;
#X floatatom 321 395 5 0 0 0 - - -;
#X floatatom 379 394 5 0 0 0 - - -;
#X floatatom 222 237 5 0 0 0 - - -;
#X floatatom 266 239 5 0 0 0 - - -;
#X floatatom 309 235 5 0 0 0 - - -;
#X obj 437 267 loadbang;
#X obj 411 319 bng 15 250 50 0 empty empty empty 17 7 0 10 -262144
-1 -1;
#X floatatom 276 398 5 0 0 0 - - -;
#X obj 48 338 expr $f2;
#X obj 207 338 expr $f2;
#X obj 116 335 expr $f2;
#X msg 330 344 77;
#X msg 366 343 82;
#X msg 405 346 86;
#X obj 47 393 route 1;
#X obj 48 418 bng 15 250 50 0 empty empty empty 17 7 0 10 -262144 -1
-1;
#X obj 108 395 route 1;
#X obj 109 420 bng 15 250 50 0 empty empty empty 17 7 0 10 -262144
-1 -1;
#X obj 192 397 route 1;
#X obj 193 422 bng 15 250 50 0 empty empty empty 17 7 0 10 -262144
-1 -1;
#N canvas 0 22 450 300 removal 0;
#X obj 44 160 inlet;
#X obj 99 163 inlet;
#X obj 208 168 inlet;
#X obj 154 170 inlet;
#X obj 63 245 outlet;
#X obj 126 246 outlet;
#X obj 194 246 outlet;
#X obj 246 107 + 1;
#X obj 198 217 spigot 1;
#X obj 82 215 spigot 1;
#X obj 21 215 spigot 1;
#X obj 143 216 spigot 1;
#X obj 203 132 route 16 17 18 19 20 21 22 23;
#X obj 248 82 random 22;
#N canvas 885 516 458 302 sorterthingy 0;
#X obj 16 42 inlet;
#X obj 81 42 inlet;
#X obj 142 44 inlet;
#X obj 199 41 inlet;
#X obj 260 42 inlet;
#X obj 77 246 outlet;
#X obj 159 248 outlet;
#X obj 236 248 outlet;
#X msg 59 210 1;
#X msg 95 210 0;
#X msg 150 209 1;
#X msg 186 210 0;
#X msg 233 204 1;
#X msg 270 209 0;
#X obj 319 246 outlet;
#X msg 313 209 1;
#X msg 355 207 0;
#X obj 313 43 inlet;
#X obj 358 41 inlet;
#X obj 404 39 inlet;
#X floatatom 27 249 5 0 0 0 - - -;
#X floatatom 125 243 5 0 0 0 - - -;
#X floatatom 202 242 5 0 0 0 - - -;
#X floatatom 279 244 5 0 0 0 - - -;
#X obj 23 274 s al;
#X obj 121 273 s be;
#X obj 207 270 s ep;
#X obj 277 271 s ga;
#X connect 0 0 8 0;
#X connect 1 0 9 0;
#X connect 2 0 10 0;
#X connect 3 0 11 0;
#X connect 4 0 12 0;
#X connect 8 0 5 0;
#X connect 8 0 20 0;
#X connect 9 0 5 0;
#X connect 9 0 20 0;
#X connect 10 0 6 0;
#X connect 10 0 21 0;
#X connect 11 0 6 0;
#X connect 11 0 21 0;
#X connect 12 0 7 0;
#X connect 12 0 22 0;
#X connect 13 0 7 0;
#X connect 13 0 22 0;
#X connect 15 0 14 0;
#X connect 15 0 23 0;
#X connect 16 0 14 0;
#X connect 16 0 23 0;
#X connect 17 0 13 0;
#X connect 18 0 15 0;
#X connect 19 0 16 0;
#X connect 20 0 24 0;
#X connect 21 0 25 0;
#X connect 22 0 26 0;
#X connect 23 0 27 0;
#X restore 270 174 pd sorterthingy;
#X floatatom 194 106 5 0 0 0 - - -;
#X obj 261 48 inlet;
#X obj 329 221 loadbang;
#X connect 0 0 10 0;
#X connect 1 0 9 0;
#X connect 2 0 11 0;
#X connect 3 0 8 0;
#X connect 7 0 12 0;
#X connect 7 0 15 0;
#X connect 8 0 6 0;
#X connect 9 0 5 0;
#X connect 10 0 4 0;
#X connect 11 0 5 0;
#X connect 12 0 14 0;
#X connect 12 1 14 1;
#X connect 12 2 14 2;
#X connect 12 3 14 3;
#X connect 12 4 14 4;
#X connect 12 5 14 5;
#X connect 12 6 14 6;
#X connect 12 7 14 7;
#X connect 13 0 7 0;
#X connect 14 0 10 1;
#X connect 14 1 9 1;
#X connect 14 2 11 1;
#X connect 14 3 8 1;
#X connect 16 0 13 0;
#X connect 17 0 14 0;
#X connect 17 0 14 2;
#X connect 17 0 14 4;
#X connect 17 0 14 6;
#X restore 88 306 pd removal;
#X obj 195 280 bng 15 250 50 0 empty empty empty 17 7 0 10 -262144
-1 -1;
#N canvas 736 108 450 300 delay 0;
#X obj 91 24 inlet;
#X obj 138 23 inlet;
#X obj 183 23 inlet;
#X obj 231 23 inlet;
#X obj 80 250 outlet;
#X obj 133 251 outlet;
#X obj 181 252 outlet;
#X obj 231 251 outlet;
#X obj 368 22 inlet;
#X obj 368 44 random 99;
#X obj 368 66 + 1;
#X obj 368 89 moses 91;
#X obj 367 114 - 89;
#X obj 300 44 random 4;
#X obj 300 66 + 1;
#X obj 277 89 route 1 2 3 4;
#N canvas 729 451 450 300 LOGIC 0;
#X obj 33 26 inlet;
#X obj 35 247 outlet;
#X obj 81 27 inlet;
#X obj 200 131 inlet;
#X obj 85 201 delay;
#X obj 82 168 spigot;
#X obj 21 169 spigot 1;
#X msg 33 133 1;
#X msg 67 133 0;
#X msg 104 133 1;
#X msg 139 133 0;
#X obj 64 61 route 0 1;
#X obj 131 175 spigot;
#X floatatom 131 226 5 0 0 0 - - -;
#X connect 0 0 6 0;
#X connect 0 0 5 0;
#X connect 2 0 11 0;
#X connect 3 0 12 0;
#X connect 4 0 1 0;
#X connect 5 0 4 0;
#X connect 6 0 1 0;
#X connect 7 0 6 1;
#X connect 8 0 6 1;
#X connect 9 0 5 1;
#X connect 9 0 12 1;
#X connect 10 0 5 1;
#X connect 10 0 12 1;
#X connect 11 0 7 0;
#X connect 11 0 10 0;
#X connect 11 1 8 0;
#X connect 11 1 9 0;
#X connect 12 0 4 1;
#X connect 12 0 13 0;
#X restore 64 221 pd LOGIC;
#N canvas 0 22 450 300 sorti 0;
#X obj 57 48 inlet;
#X obj 138 47 inlet;
#X obj 213 44 inlet;
#X obj 282 45 inlet;
#X obj 46 239 outlet;
#X obj 125 234 outlet;
#X obj 209 234 outlet;
#X obj 287 237 outlet;
#X msg 33 209 1;
#X msg 68 209 0;
#X msg 118 205 1;
#X msg 153 205 0;
#X msg 198 203 1;
#X msg 233 203 0;
#X msg 281 203 1;
#X msg 316 203 0;
#X connect 0 0 8 0;
#X connect 0 0 11 0;
#X connect 0 0 13 0;
#X connect 0 0 15 0;
#X connect 1 0 9 0;
#X connect 1 0 10 0;
#X connect 1 0 13 0;
#X connect 1 0 15 0;
#X connect 2 0 12 0;
#X connect 2 0 9 0;
#X connect 2 0 11 0;
#X connect 2 0 15 0;
#X connect 3 0 14 0;
#X connect 3 0 13 0;
#X connect 3 0 11 0;
#X connect 3 0 9 0;
#X connect 8 0 4 0;
#X connect 9 0 4 0;
#X connect 10 0 5 0;
#X connect 11 0 5 0;
#X connect 12 0 6 0;
#X connect 13 0 6 0;
#X connect 14 0 7 0;
#X connect 15 0 7 0;
#X restore 277 116 pd sorti;
#N canvas 729 451 450 300 LOGIC 0;
#X obj 33 26 inlet;
#X obj 35 247 outlet;
#X obj 81 27 inlet;
#X obj 200 131 inlet;
#X obj 85 201 delay;
#X obj 82 168 spigot;
#X obj 21 169 spigot 1;
#X msg 33 133 1;
#X msg 67 133 0;
#X msg 104 133 1;
#X msg 139 133 0;
#X obj 64 61 route 0 1;
#X obj 131 175 spigot;
#X floatatom 133 230 5 0 0 0 - - -;
#X connect 0 0 6 0;
#X connect 0 0 5 0;
#X connect 2 0 11 0;
#X connect 3 0 12 0;
#X connect 4 0 1 0;
#X connect 5 0 4 0;
#X connect 6 0 1 0;
#X connect 7 0 6 1;
#X connect 8 0 6 1;
#X connect 9 0 5 1;
#X connect 9 0 12 1;
#X connect 10 0 5 1;
#X connect 10 0 12 1;
#X connect 11 0 7 0;
#X connect 11 0 10 0;
#X connect 11 1 8 0;
#X connect 11 1 9 0;
#X connect 12 0 4 1;
#X connect 12 0 13 0;
#X restore 126 223 pd LOGIC;
#N canvas 729 451 450 300 LOGIC 0;
#X obj 33 26 inlet;
#X obj 35 247 outlet;
#X obj 81 27 inlet;
#X obj 200 131 inlet;
#X obj 85 201 delay;
#X obj 82 168 spigot;
#X obj 21 169 spigot 1;
#X msg 33 133 1;
#X msg 67 133 0;
#X msg 104 133 1;
#X msg 139 133 0;
#X obj 64 61 route 0 1;
#X obj 131 175 spigot;
#X floatatom 132 222 5 0 0 0 - - -;
#X connect 0 0 6 0;
#X connect 0 0 5 0;
#X connect 2 0 11 0;
#X connect 3 0 12 0;
#X connect 4 0 1 0;
#X connect 5 0 4 0;
#X connect 6 0 1 0;
#X connect 7 0 6 1;
#X connect 8 0 6 1;
#X connect 9 0 5 1;
#X connect 9 0 12 1;
#X connect 10 0 5 1;
#X connect 10 0 12 1;
#X connect 11 0 7 0;
#X connect 11 0 10 0;
#X connect 11 1 8 0;
#X connect 11 1 9 0;
#X connect 12 0 4 1;
#X connect 12 0 13 0;
#X restore 196 222 pd LOGIC;
#N canvas 729 451 450 300 LOGIC 0;
#X obj 33 26 inlet;
#X obj 35 247 outlet;
#X obj 81 27 inlet;
#X obj 200 131 inlet;
#X obj 85 201 delay;
#X obj 82 168 spigot;
#X obj 21 169 spigot 1;
#X msg 33 133 1;
#X msg 67 133 0;
#X msg 104 133 1;
#X msg 139 133 0;
#X obj 64 61 route 0 1;
#X obj 131 175 spigot;
#X floatatom 132 226 5 0 0 0 - - -;
#X connect 0 0 6 0;
#X connect 0 0 5 0;
#X connect 2 0 11 0;
#X connect 3 0 12 0;
#X connect 4 0 1 0;
#X connect 5 0 4 0;
#X connect 6 0 1 0;
#X connect 7 0 6 1;
#X connect 8 0 6 1;
#X connect 9 0 5 1;
#X connect 9 0 12 1;
#X connect 10 0 5 1;
#X connect 10 0 12 1;
#X connect 11 0 7 0;
#X connect 11 0 10 0;
#X connect 11 1 8 0;
#X connect 11 1 9 0;
#X connect 12 0 4 1;
#X connect 12 0 13 0;
#X restore 252 223 pd LOGIC;
#X floatatom 364 183 5 0 0 0 - - -;
#X obj 360 212 s delay;
#X obj 367 137 * 40;
#X connect 0 0 16 0;
#X connect 1 0 18 0;
#X connect 2 0 19 0;
#X connect 3 0 20 0;
#X connect 8 0 9 0;
#X connect 8 0 13 0;
#X connect 9 0 10 0;
#X connect 10 0 11 0;
#X connect 11 1 12 0;
#X connect 12 0 23 0;
#X connect 13 0 14 0;
#X connect 14 0 15 0;
#X connect 15 0 17 0;
#X connect 15 1 17 1;
#X connect 15 2 17 2;
#X connect 15 3 17 3;
#X connect 16 0 4 0;
#X connect 17 0 16 1;
#X connect 17 1 18 1;
#X connect 17 2 19 1;
#X connect 17 3 20 1;
#X connect 18 0 5 0;
#X connect 19 0 6 0;
#X connect 20 0 7 0;
#X connect 21 0 22 0;
#X connect 23 0 16 2;
#X connect 23 0 18 2;
#X connect 23 0 19 2;
#X connect 23 0 20 2;
#X connect 23 0 21 0;
#X restore 87 281 pd delay;
#X obj 192 373 > 93;
#X obj 108 371 > 93;
#X obj 47 369 > 93;
#X text 19 26 click to run ->;
#N canvas 847 283 450 300 bpm 0;
#X obj 55 37 inlet;
#X obj 52 234 outlet;
#X obj 153 38 loadbang;
#X obj 54 91 route 8 9;
#X msg 57 122 inc;
#X msg 91 121 dec;
#X obj 54 148 counter;
#X msg 135 113 50;
#X obj 54 171 * 10;
#X floatatom 69 208 5 0 0 0 - - -;
#X obj 110 234 outlet;
#X obj 55 64 random 10;
#X connect 0 0 11 0;
#X connect 2 0 7 0;
#X connect 3 0 4 0;
#X connect 3 1 5 0;
#X connect 4 0 6 0;
#X connect 5 0 6 0;
#X connect 6 0 8 0;
#X connect 7 0 6 2;
#X connect 8 0 1 0;
#X connect 8 0 9 0;
#X connect 9 0 10 0;
#X connect 11 0 3 0;
#X restore 54 69 pd bpm;
#X text 272 421 these are the notes;
#X text 137 211 beat;
#X obj 66 123 s msd;
#X obj 490 350 r msd;
#X floatatom 490 373 5 0 0 0 - - -;
#X text 487 391 ms delay between beats;
#X obj 638 388 r delay;
#X floatatom 637 412 5 0 0 0 - - -;
#X text 629 435 delay for a note (ms);
#X obj 406 446 r al;
#X obj 453 447 r be;
#X obj 512 446 r ep;
#X obj 563 447 r ga;
#X floatatom 404 475 5 0 0 0 - - -;
#X floatatom 454 478 5 0 0 0 - - -;
#X floatatom 510 480 5 0 0 0 - - -;
#X floatatom 562 482 5 0 0 0 - - -;
#X text 403 511 which beats are silent (0) or on (1);
#N canvas 38 171 450 300 README 0;
#X text 15 17 This is a random arpeggio generator. It starts with a
simple arpeggio: 1 3 5 3 and modifies it by taking out and/or delaying
notes. The notes are also randomly modified every two bars.;
#X text 23 132 Usage: Click the button (click to run ->). Enjoy!;
#X restore 638 50 pd README;
#X obj 461 43 cnv 15 170 30 empty empty Confused?Click: 20 12 0 14
-258113 -262144 0;
#X msg 159 25 0;
#X text 467 83 CREATED BY @terrabyte_aura;
#X connect 1 0 0 0;
#X connect 1 1 0 1;
#X connect 2 0 61 0;
#X connect 2 1 61 1;
#X connect 2 2 61 2;
#X connect 2 3 19 0;
#X connect 2 3 60 0;
#X connect 2 3 61 3;
#X connect 3 0 4 0;
#X connect 4 0 5 0;
#X connect 5 0 2 0;
#X connect 6 0 59 4;
#X connect 7 0 8 0;
#X connect 8 0 3 0;
#X connect 8 0 6 0;
#X connect 8 0 66 0;
#X connect 9 0 10 0;
#X connect 9 0 17 0;
#X connect 10 0 38 0;
#X connect 10 1 38 1;
#X connect 10 2 38 2;
#X connect 11 0 13 0;
#X connect 12 0 14 0;
#X connect 13 0 12 0;
#X connect 14 0 15 0;
#X connect 15 0 16 0;
#X connect 15 0 18 0;
#X connect 16 0 26 0;
#X connect 16 0 20 0;
#X connect 16 1 21 0;
#X connect 16 2 27 0;
#X connect 16 2 22 0;
#X connect 16 3 28 0;
#X connect 16 3 23 0;
#X connect 16 3 30 0;
#X connect 16 4 29 0;
#X connect 16 4 24 0;
#X connect 16 4 31 0;
#X connect 19 0 11 0;
#X connect 19 1 9 0;
#X connect 25 0 46 0;
#X connect 25 0 47 1;
#X connect 26 0 37 0;
#X connect 27 0 37 1;
#X connect 28 0 37 2;
#X connect 29 0 37 3;
#X connect 30 0 37 2;
#X connect 31 0 37 3;
#X connect 32 0 25 0;
#X connect 33 0 39 0;
#X connect 33 0 49 1;
#X connect 34 0 33 0;
#X connect 35 0 48 1;
#X connect 35 0 40 0;
#X connect 36 0 35 0;
#X connect 37 0 32 0;
#X connect 37 0 34 0;
#X connect 37 0 36 0;
#X connect 38 0 32 1;
#X connect 38 0 41 0;
#X connect 38 1 34 1;
#X connect 38 1 42 0;
#X connect 38 2 36 1;
#X connect 38 2 43 0;
#X connect 44 0 45 0;
#X connect 45 0 52 0;
#X connect 45 0 51 0;
#X connect 45 0 50 0;
#X connect 47 0 1 0;
#X connect 47 0 64 0;
#X connect 48 0 1 0;
#X connect 48 0 62 0;
#X connect 49 0 1 0;
#X connect 49 0 63 0;
#X connect 50 0 25 3;
#X connect 51 0 33 3;
#X connect 52 0 35 3;
#X connect 53 0 54 0;
#X connect 54 0 50 0;
#X connect 55 0 56 0;
#X connect 56 0 51 0;
#X connect 57 0 58 0;
#X connect 58 0 52 0;
#X connect 59 0 47 0;
#X connect 59 1 49 0;
#X connect 59 2 48 0;
#X connect 60 0 61 4;
#X connect 61 0 59 0;
#X connect 61 1 59 1;
#X connect 61 2 59 2;
#X connect 61 3 59 3;
#X connect 62 0 57 0;
#X connect 63 0 55 0;
#X connect 64 0 53 0;
#X connect 66 0 8 1;
#X connect 66 1 69 0;
#X connect 70 0 71 0;
#X connect 73 0 74 0;
#X connect 76 0 80 0;
#X connect 77 0 81 0;
#X connect 78 0 82 0;
#X connect 79 0 83 0;
#X connect 87 0 8 0;
#X coords 0 0 1 1 85 60 0;
